<svg id="Слой_1" data-name="Слой 1" xmlns="http://www.w3.org/2000/svg" viewBox="0 0 2048 2048"><g id="Слой_2" data-name="Слой 2"><rect width="2048" height="2048" fill="#fff"/></g><g id="Слой_3" data-name="Слой 3"><path d="M1620.2,752.8h0a524.27,524.27,0,0,0-210.9-192.1c-3.3,18.5-5.7,37.2-10.6,55.4-4.3,16.1-10.9,32-20.9,45.2l-24.5,20.9-11.5,6.2a65.5,65.5,0,0,1-8.3,20.5,210.14,210.14,0,0,1,60.5,22l22.3,65.3c3.5,10.2,7.3,20.9,13.6,29.4-19.8,8.8-39.8,17-60.1,24.4h0l-33.6,3.3c2.8-3.3,5.7-6.4,8.8-9.5-9-7.3-18.2-14.6-26.9-22.3a53.24,53.24,0,0,1-4.7-4.8,18.59,18.59,0,0,0-9.3-6c-13.2-3.7-26.9-6.2-40.2-9.7q-40.35-10.8-79.6-25.3l-3.1-1.2a821.2,821.2,0,0,0-218.8,47.3c-4.2,9.1-8.1,18.3-11.6,27.7A198.13,198.13,0,0,1,975,859.9c-16.4,12.5-26.9,25.7-33.3,38.5h0c-4.7,4-9.1,8.3-13.4,12.7A205.48,205.48,0,0,0,814.6,908l-2.1-1.4L793,893.4c-8.5-13.2-20-26.1-34.2-38.4l29.8,2.2a114.53,114.53,0,0,1-5-33.4c-30.7-7.9-59.9-20.8-89.7-31.7-26.9-9.9-55-18.2-83.5-19.5A270.68,270.68,0,0,1,563.8,788c-.9,3.4-1.6,6.9-2.2,10.4a97.81,97.81,0,0,0-34.7,12.3c2.4-13.6,4.3-27.2,5.7-40.9s2.2-27.5,2.6-41.5h0a198.19,198.19,0,0,0,20-47.2,340.65,340.65,0,0,0,8.2-36.3c1-6,2-12,2.9-18.1a876.19,876.19,0,0,0,56.8-67.9,1893.56,1893.56,0,0,0,266.2-48.6Q1006.6,538.4,1125,561c-3.4-2.9-6.9-5.8-10.3-8.6-77.1-48-156.9-95.7-246.2-111.6-62.2-11.1-126.4-6.2-188.4,6.2-55.9,11.2-111.9,29.1-157.1,63.8-54.7,42-89.6,108.2-95,176.8,1.5.5,3.1.9,4.7,1.3h0a525,525,0,0,0,66.1-9q4.5,50.7,6.6,101.4c.1,2.4.2,4.7.3,7.1a490.32,490.32,0,0,1-52.2,42.1c1.3,16.4,3.4,32.6,5.9,48.7,11.3,1.9,22.5,4.3,33.5,7.3-.3,6-.5,12.5-.9,19.6-1.3,28.5,3.9,102,35.7,161.4h0c.9,1.6,1.8,3.2,2.7,4.9a181,181,0,0,0,22.2,31.3c1.4,1.6,2.9,3.2,4.3,4.7s3,3.1,4.5,4.6q5.55,5.55,11.1,10.5a143.07,143.07,0,0,0,18.7,14.1,106.16,106.16,0,0,0,17.1,8.8c12.6,5.1,26.5,7.8,42.8,7.8,25.5,0,47.5-3.9,68.4-17.4,2.9-1.9,5.7-3.9,8.6-6.2.8-.7,1.7-1.3,2.5-2,17.8-14.8,33.3-34.7,46.2-59.3,23-43.8,33.5-95.1,33.5-124.3a56.33,56.33,0,0,0-.4-7.1c10.4-6,22.4-9.3,34.4-10.4,16.3-1.5,32.7.7,48.8,3.5,13.8,2.4,28.3,5.8,39.4,13.9,2.2,47.6,26.1,102,64.9,147.3l.3.3c5.8,6.8,11.8,13.1,17.9,19.1a254.32,254.32,0,0,0,25,21.4,225.55,225.55,0,0,0,30.1,19.2,180.18,180.18,0,0,0,25.1,11,144.77,144.77,0,0,0,20.5,5.7,138.61,138.61,0,0,0,28,2.9c27.4,0,54.4-7.5,80-22.2a182.65,182.65,0,0,0,18.2-11.8,215.06,215.06,0,0,0,24.7-21.1,259.42,259.42,0,0,0,19.2-21.4c35-43.8,55.8-99.8,55.8-149.8a203.44,203.44,0,0,0-4.2-42.7,185.22,185.22,0,0,1,53.2-8.8,918.21,918.21,0,0,0,115.4-64.7q23.7-15.6,46.3-32.6h0a162.52,162.52,0,0,1,37.5-3.2c10.1,6.9,20.4,13.4,30.9,19.6C1620.8,792.9,1620.5,772.8,1620.2,752.8Zm-1089.8,292c-21.3-49.6-25.6-106.3-24.5-131.2,1.7-37.7,10.3-60.7,24.5-74.3Zm31,49.9c-3.1-3.4-6-7-8.8-10.7V826.2a87.89,87.89,0,0,1,8.8-2.4Zm29.7,24.2a115.53,115.53,0,0,1-18.7-13.3V822.1a166.09,166.09,0,0,1,18.7-.8Zm109,.6a97.77,97.77,0,0,1-51.1,14h-.8V826.4a199.34,199.34,0,0,1,51.9,18.9v274.2Zm19.4-14.6c-2.7,2.5-5.4,4.8-8.3,7V851.5c2.8,1.7,5.6,3.4,8.3,5.2Zm33.1-43.6a181.22,181.22,0,0,1-22.1,32.1v-229a199.54,199.54,0,0,1,22.1,19Zm17.4-39.5V903.9c9.6,13.8,15.2,27.9,15.2,40.9C785.3,962.4,780.6,991.6,770,1021.8Zm227.6,29.5c-24.7-36.2-40.3-77.4-40.3-113.7,0-25.5,15.6-46.6,40.3-63Zm42.9,49.2a253.93,253.93,0,0,1-20.7-20.8V862.1q9.9-4.65,20.7-8.7Zm55.2,35.8a181.27,181.27,0,0,1-25.1-13.1V844c8.2-2.1,16.6-4,25.1-5.5Zm80.9,6.1c-3.8,1-7.6,1.8-11.4,2.5V831.3c3.9-.1,7.7-.2,11.4-.2Zm65.8-36.9c-15.2,13.7-32.1,24.7-50.4,31.9V831.3c19.2.6,35.9,2.7,50.4,6.4Zm24.7-26.3V846.6c34.8,17.1,50,49.1,50,98.8,0,44.6-19,94.7-50,133.8Z"/><path d="M1620,733.3a463,463,0,0,0-56.7-73.9c-43.9-46.6-96.9-83.5-149.8-119.7,8.2-36.9,20.4-72.9,27.5-110,14-73.8,7.6-149.8-5-224L1372.4,126l3.1,1.2q48.3,50.4,96.6,100.9c19,19.8,37.9,39.6,57.9,58.4,8.8,49.6,24.1,98,41.3,145.4,8.2,22.6,17.1,45.5,31.7,64.6a630.58,630.58,0,0,0,17.8,78.1Q1619.15,654,1620,733.3Z"/><path d="M1411.3,472.7c-8,25.6-18.2,50.6-23.8,76.9-4.3,20.7-5.7,41.9-9.8,62.6-2.9,14.2-7.3,28.5-14.5,41l-.4.6c-.3.5-.6,1-.8,1.4-21.5,6.8-45.7,1-65.3-10.4-21-12.2-37.8-30.2-55-47.3A1010.42,1010.42,0,0,0,947.5,394q-76.35-13-152.4-27.4c-61.3,1.9-123.6,5.5-179.9,29.5-38.2,16.2-75.8,45-113.6,68.9q14.55-86,29.2-171.9a668.66,668.66,0,0,0,46-99c50.8-47,113.7-81,179-104.7,78.4-28.4,161-43.1,243.3-56.9a1172.78,1172.78,0,0,0,125.4,13.9l157.3,49c24.1,7.5,48.3,15.1,72.1,23.6,54.3,52.2,76.8,130.6,78.4,206A464.39,464.39,0,0,1,1411.3,472.7Z"/><path d="M1629.4,930.6q-7.5,49.95-19.4,99.1c-6.3,26.3-15.9,50.4-24.1,76.2-1.2,3.8-2.6,7.8-5.4,10.6-2.4,2.4-5.6,3.7-8.8,4.9l-24.6,9.6c-5.7,11.6-11.7,23.2-17.8,34.6l-10,5.8q2.4-72.15,1-144.3c-.5-25.1,4.6-50,8.7-74.9,2.9-3.9,6-7.8,9.1-11.6,10.4,8.7,20.4,18.1,28.4,29,9.7,13.1,16.5,28.8,16.9,45.1.8,30.6-20.7,57.9-22.9,88.4a1112.38,1112.38,0,0,0,50.8-132.2h0l-3.5-20.5-27.9-26.7c-4.8-4.6-9.9-9.8-12.2-15.8,9-8.5,19.3-15.7,31.3-17.4,5.3-.7,10.9-.3,15.4,2.5,4.3,2.7,7.1,7.3,9.8,11.7,2.5,4.2,5,8.4,5.9,13.2C1630.6,922.1,1630,926.4,1629.4,930.6Z"/><rect x="1866.7" width="181.3" height="2048"/><path d="M1849.3,0V2048h-113c3.8-16.6,7.3-33.2,10.4-50,.9-4.8,1.8-9.5,2.6-14.3s1.7-9.5,2.4-14.3q3.6-21.3,6.6-42.9c.7-4.8,1.3-9.5,2-14.3s1.3-9.5,1.9-14.3,1.2-9.5,1.8-14.3c1.2-9.5,2.4-19,3.5-28.6s2.3-19,3.4-28.6c.5-4,.9-8,1.4-12.1.1-.7.2-1.5.3-2.2l1.7-14.3,1.7-14.3,6.6-57V0Z"/><path d="M756,2007.4c-78.6-110-156.4-223.3-199.1-350.5q7.5-83.7,9.5-167.8c14.2-11.2,28.6-22,43.3-32.6-9.3-59.9-17.4-119.8-20.4-180.1-.2-4-.4-8.1-.5-12.1h0q-19.2-30-35.4-61.8l-28.9.1q-92.85,95-181.4,193.9l-.6,2c-5.7,183,43.5,365.9,143.1,519.6L470.1,2048H771.2C766.2,2034.5,761.1,2020.9,756,2007.4Zm-140.2-87.8v-1.2l.6,1.2Z"/><path d="M1678,1913.4v.1q-22.35,67.5-46.1,134.5H1526.2q23.55-66,41.8-133.9l.1-.4h-.3c-41.3-94.2-35.9-204.1-71-301.2-3.9-10.7-8.1-21.1-12.8-31.3-14-30.6-31.3-59.5-50.4-87.4a204.31,204.31,0,0,0,15.9,66.2l-32.1,3.7,30.1,16.5-24.9,2.7c32.6,101.7,1.7,211.8,5,318.6.4,13,1.3,26,1.7,39.1A819.84,819.84,0,0,1,1380,2048h-89.4c2-10.9,4.3-21.8,6.9-32.6-3.5-24.5-2.6-49.7-2.3-74.5a1245.26,1245.26,0,0,0-23-248.9c1.6-2.9,3.3-5.8,4.9-8.6q43.5-77.25,82.3-157h0q15.45-45.75,30.8-91.6l22.3-66.4a1052.68,1052.68,0,0,1,95.4,77l58.1,142.3q13.05,31.8,25.6,63.9c5.2,13.2,10.2,26.3,15.2,39.6a449.79,449.79,0,0,0,44.8,5.8c-5.2,23.4-11.1,46.8-17.4,69.9h0C1650.8,1815.2,1665.7,1864,1678,1913.4Z"/><path d="M448.7,2048H0V1695.8c13.3-3.5,26.7-6.9,40-10.2V0h66.9V1669.2c7.8-1.9,15.5-3.7,23.3-5.5V0H286.5V1642.7c23.2,28.2,40.1,62.1,55,95.8C385.9,1838.3,419.2,1942.8,448.7,2048Z"/></g></svg>